<?xml version="1.0" encoding="UTF-8" standalone="no"?>
<!-- Created with Inkscape (http://www.inkscape.org/) -->

<svg
   width="112.84685mm"
   height="76.106529mm"
   viewBox="0 0 426.50778 287.64673"
   version="1.1"
   id="svg1"
   xmlns:inkscape="http://www.inkscape.org/namespaces/inkscape"
   xmlns:sodipodi="http://sodipodi.sourceforge.net/DTD/sodipodi-0.dtd"
   xmlns="http://www.w3.org/2000/svg"
   xmlns:svg="http://www.w3.org/2000/svg">
  <sodipodi:namedview
     id="namedview1"
     pagecolor="#505050"
     bordercolor="#ffffff"
     borderopacity="1"
     inkscape:showpageshadow="0"
     inkscape:pageopacity="0"
     inkscape:pagecheckerboard="1"
     inkscape:deskcolor="#505050"
     inkscape:document-units="mm" />
  <defs
     id="defs1">
    <rect
       x="262.33548"
       y="364.50824"
       width="249.90906"
       height="266.4776"
       id="rect11" />
    <rect
       x="262.33548"
       y="364.50824"
       width="249.90906"
       height="266.4776"
       id="rect12" />
  </defs>
  <g
     inkscape:label="Capa 1"
     inkscape:groupmode="layer"
     id="layer1"
     transform="translate(-271.31479,-358.65435)">
    <g
       id="g12"
       style="stroke:#000000">
      <path
         sodipodi:type="spiral"
         style="fill:none;fill-rule:evenodd;stroke:#000000;stroke-width:11.5843;stroke-dasharray:none"
         id="path12"
         sodipodi:cx="154.63986"
         sodipodi:cy="169.8277"
         sodipodi:expansion="1"
         sodipodi:revolution="3"
         sodipodi:radius="145.39505"
         sodipodi:argument="-16.960012"
         sodipodi:t0="0"
         d="m 154.63986,169.8277 c -2.28448,6.92267 -10.45871,0.33597 -11.50594,-3.79696 -2.83794,-11.19998 9.24892,-19.31914 19.09985,-19.21493 17.62102,0.1864 28.71499,18.13279 26.92392,34.40276 -2.62845,23.87683 -27.10539,38.30136 -49.70565,34.6329 -30.1226,-4.88948 -47.963664,-36.10534 -42.341896,-65.00855 7.074426,-36.37175 45.117296,-57.664154 80.311456,-50.05088 42.62485,9.22069 67.38656,54.13581 57.75987,95.61435 -11.34472,48.88103 -63.15839,77.1227 -110.91726,65.46886 C 69.124708,248.42043 37.396219,189.69157 51.08637,135.65509 66.641989,74.255406 132.29724,39.035384 192.60942,54.768262 c 67.66116,17.649911 106.37609,90.239478 88.59582,156.825958 -19.73947,73.92361 -99.26914,116.13596 -172.12885,96.3048"
         transform="translate(229.19837,313.42186)" />
      <text
         xml:space="preserve"
         id="text12"
         style="font-style:normal;font-variant:normal;font-weight:normal;font-stretch:normal;font-size:74.6667px;line-height:1.5;font-family:'Franklin Gothic Medium';-inkscape-font-specification:'Franklin Gothic Medium, ';text-align:center;letter-spacing:0px;white-space:pre;shape-inside:url(#rect12);fill:#00ffff;stroke:#000000;stroke-width:11.5843;stroke-linecap:round;stroke-linejoin:bevel;stroke-miterlimit:3;stroke-dasharray:none"
         transform="matrix(2.6529521,0,0,2.6924023,-501.41021,-562.87135)"><tspan
           x="328.07933"
           y="442.31052"
           id="tspan2"><tspan
             style="font-family:'DejaVu Math TeX Gyre';-inkscape-font-specification:'DejaVu Math TeX Gyre'"
             id="tspan1">NX</tspan></tspan></text>
    </g>
    <g
       id="g11">
      <path
         sodipodi:type="spiral"
         style="fill:none;fill-rule:evenodd;stroke:#ff0000;stroke-width:11.5843;stroke-dasharray:none"
         id="path11"
         sodipodi:cx="154.63986"
         sodipodi:cy="169.8277"
         sodipodi:expansion="1"
         sodipodi:revolution="3"
         sodipodi:radius="145.39505"
         sodipodi:argument="-16.960012"
         sodipodi:t0="0"
         d="m 154.63986,169.8277 c -2.28448,6.92267 -10.45871,0.33597 -11.50594,-3.79696 -2.83794,-11.19998 9.24892,-19.31914 19.09985,-19.21493 17.62102,0.1864 28.71499,18.13279 26.92392,34.40276 -2.62845,23.87683 -27.10539,38.30136 -49.70565,34.6329 -30.1226,-4.88948 -47.963664,-36.10534 -42.341896,-65.00855 7.074426,-36.37175 45.117296,-57.664154 80.311456,-50.05088 42.62485,9.22069 67.38656,54.13581 57.75987,95.61435 -11.34472,48.88103 -63.15839,77.1227 -110.91726,65.46886 C 69.124708,248.42043 37.396219,189.69157 51.08637,135.65509 66.641989,74.255406 132.29724,39.035384 192.60942,54.768262 c 67.66116,17.649911 106.37609,90.239478 88.59582,156.825958 -19.73947,73.92361 -99.26914,116.13596 -172.12885,96.3048"
         transform="translate(229.19837,313.42186)" />
      <text
         xml:space="preserve"
         id="text11"
         style="font-style:normal;font-variant:normal;font-weight:normal;font-stretch:normal;font-size:74.6667px;line-height:1.5;font-family:'Franklin Gothic Medium';-inkscape-font-specification:'Franklin Gothic Medium, ';text-align:center;letter-spacing:0px;white-space:pre;shape-inside:url(#rect11);fill:#00ffff;stroke-width:11.5843;stroke-linecap:round;stroke-linejoin:bevel;stroke-miterlimit:3;stroke-dasharray:none"
         transform="matrix(2.6529521,0,0,2.6924023,-501.41021,-562.87135)"><tspan
           x="328.07933"
           y="442.31052"
           id="tspan4"><tspan
             style="font-family:'DejaVu Math TeX Gyre';-inkscape-font-specification:'DejaVu Math TeX Gyre'"
             id="tspan3">NX</tspan></tspan></text>
    </g>
  </g>
</svg>
